<svg xmlns="http://www.w3.org/2000/svg" width="128" height="128" viewBox="0 0 128 128">
  <defs>
    <g id="frame-down-0">
      <circle cx="16" cy="8" r="4" fill="#f2d3a0"/>
      <rect x="12" y="12" width="8" height="10" rx="1" fill="#7f8f9f"/>
      <line x1="12" y1="15" x2="9" y2="20" stroke="#7f8f9f" stroke-width="2" stroke-linecap="round"/>
      <line x1="20" y1="15" x2="23" y2="20" stroke="#7f8f9f" stroke-width="2" stroke-linecap="round"/>
      <line x1="14" y1="22" x2="12" y2="29" stroke="#404040" stroke-width="2" stroke-linecap="round"/>
      <line x1="18" y1="22" x2="20" y2="29" stroke="#404040" stroke-width="2" stroke-linecap="round"/>
    </g>

    <g id="frame-down-1">
      <circle cx="16" cy="8" r="4" fill="#f2d3a0"/>
      <rect x="12" y="12" width="8" height="10" rx="1" fill="#7f8f9f"/>
      <line x1="12" y1="15" x2="8" y2="19" stroke="#7f8f9f" stroke-width="2" stroke-linecap="round"/>
      <line x1="20" y1="15" x2="24" y2="20" stroke="#7f8f9f" stroke-width="2" stroke-linecap="round"/>
      <line x1="14" y1="22" x2="10" y2="27" stroke="#404040" stroke-width="2" stroke-linecap="round"/>
      <line x1="18" y1="22" x2="22" y2="29" stroke="#404040" stroke-width="2" stroke-linecap="round"/>
    </g>

    <g id="frame-down-2">
      <circle cx="16" cy="8" r="4" fill="#f2d3a0"/>
      <rect x="12" y="12" width="8" height="10" rx="1" fill="#7f8f9f"/>
      <line x1="12" y1="15" x2="9" y2="20" stroke="#7f8f9f" stroke-width="2" stroke-linecap="round"/>
      <line x1="20" y1="15" x2="23" y2="20" stroke="#7f8f9f" stroke-width="2" stroke-linecap="round"/>
      <line x1="14" y1="22" x2="12" y2="29" stroke="#404040" stroke-width="2" stroke-linecap="round"/>
      <line x1="18" y1="22" x2="20" y2="29" stroke="#404040" stroke-width="2" stroke-linecap="round"/>
    </g>

    <g id="frame-down-3">
      <circle cx="16" cy="8" r="4" fill="#f2d3a0"/>
      <rect x="12" y="12" width="8" height="10" rx="1" fill="#7f8f9f"/>
      <line x1="12" y1="15" x2="8" y2="20" stroke="#7f8f9f" stroke-width="2" stroke-linecap="round"/>
      <line x1="20" y1="15" x2="24" y2="19" stroke="#7f8f9f" stroke-width="2" stroke-linecap="round"/>
      <line x1="14" y1="22" x2="10" y2="29" stroke="#404040" stroke-width="2" stroke-linecap="round"/>
      <line x1="18" y1="22" x2="22" y2="27" stroke="#404040" stroke-width="2" stroke-linecap="round"/>
    </g>

    <g id="frame-left-0">
      <circle cx="13" cy="8" r="4" fill="#f2d3a0"/>
      <rect x="10" y="12" width="7" height="10" rx="1" fill="#7f8f9f"/>
      <line x1="10" y1="15" x2="6" y2="16" stroke="#7f8f9f" stroke-width="2" stroke-linecap="round"/>
      <line x1="17" y1="15" x2="20" y2="18" stroke="#7f8f9f" stroke-width="2" stroke-linecap="round"/>
      <line x1="12" y1="22" x2="10" y2="29" stroke="#404040" stroke-width="2" stroke-linecap="round"/>
      <line x1="15" y1="22" x2="16" y2="29" stroke="#404040" stroke-width="2" stroke-linecap="round"/>
    </g>

    <g id="frame-left-1">
      <circle cx="13" cy="8" r="4" fill="#f2d3a0"/>
      <rect x="10" y="12" width="7" height="10" rx="1" fill="#7f8f9f"/>
      <line x1="10" y1="15" x2="5" y2="14" stroke="#7f8f9f" stroke-width="2" stroke-linecap="round"/>
      <line x1="17" y1="15" x2="20" y2="19" stroke="#7f8f9f" stroke-width="2" stroke-linecap="round"/>
      <line x1="12" y1="22" x2="8" y2="27" stroke="#404040" stroke-width="2" stroke-linecap="round"/>
      <line x1="15" y1="22" x2="18" y2="29" stroke="#404040" stroke-width="2" stroke-linecap="round"/>
    </g>

    <g id="frame-left-2">
      <circle cx="13" cy="8" r="4" fill="#f2d3a0"/>
      <rect x="10" y="12" width="7" height="10" rx="1" fill="#7f8f9f"/>
      <line x1="10" y1="15" x2="6" y2="16" stroke="#7f8f9f" stroke-width="2" stroke-linecap="round"/>
      <line x1="17" y1="15" x2="20" y2="18" stroke="#7f8f9f" stroke-width="2" stroke-linecap="round"/>
      <line x1="12" y1="22" x2="10" y2="29" stroke="#404040" stroke-width="2" stroke-linecap="round"/>
      <line x1="15" y1="22" x2="16" y2="29" stroke="#404040" stroke-width="2" stroke-linecap="round"/>
    </g>

    <g id="frame-left-3">
      <circle cx="13" cy="8" r="4" fill="#f2d3a0"/>
      <rect x="10" y="12" width="7" height="10" rx="1" fill="#7f8f9f"/>
      <line x1="10" y1="15" x2="5" y2="17" stroke="#7f8f9f" stroke-width="2" stroke-linecap="round"/>
      <line x1="17" y1="15" x2="20" y2="18" stroke="#7f8f9f" stroke-width="2" stroke-linecap="round"/>
      <line x1="12" y1="22" x2="8" y2="29" stroke="#404040" stroke-width="2" stroke-linecap="round"/>
      <line x1="15" y1="22" x2="18" y2="27" stroke="#404040" stroke-width="2" stroke-linecap="round"/>
    </g>

    <g id="frame-right-0">
      <circle cx="19" cy="8" r="4" fill="#f2d3a0"/>
      <rect x="15" y="12" width="7" height="10" rx="1" fill="#7f8f9f"/>
      <line x1="15" y1="15" x2="12" y2="18" stroke="#7f8f9f" stroke-width="2" stroke-linecap="round"/>
      <line x1="22" y1="15" x2="26" y2="16" stroke="#7f8f9f" stroke-width="2" stroke-linecap="round"/>
      <line x1="17" y1="22" x2="16" y2="29" stroke="#404040" stroke-width="2" stroke-linecap="round"/>
      <line x1="20" y1="22" x2="22" y2="29" stroke="#404040" stroke-width="2" stroke-linecap="round"/>
    </g>

    <g id="frame-right-1">
      <circle cx="19" cy="8" r="4" fill="#f2d3a0"/>
      <rect x="15" y="12" width="7" height="10" rx="1" fill="#7f8f9f"/>
      <line x1="15" y1="15" x2="12" y2="19" stroke="#7f8f9f" stroke-width="2" stroke-linecap="round"/>
      <line x1="22" y1="15" x2="27" y2="14" stroke="#7f8f9f" stroke-width="2" stroke-linecap="round"/>
      <line x1="17" y1="22" x2="14" y2="29" stroke="#404040" stroke-width="2" stroke-linecap="round"/>
      <line x1="20" y1="22" x2="24" y2="27" stroke="#404040" stroke-width="2" stroke-linecap="round"/>
    </g>

    <g id="frame-right-2">
      <circle cx="19" cy="8" r="4" fill="#f2d3a0"/>
      <rect x="15" y="12" width="7" height="10" rx="1" fill="#7f8f9f"/>
      <line x1="15" y1="15" x2="12" y2="18" stroke="#7f8f9f" stroke-width="2" stroke-linecap="round"/>
      <line x1="22" y1="15" x2="26" y2="16" stroke="#7f8f9f" stroke-width="2" stroke-linecap="round"/>
      <line x1="17" y1="22" x2="16" y2="29" stroke="#404040" stroke-width="2" stroke-linecap="round"/>
      <line x1="20" y1="22" x2="22" y2="29" stroke="#404040" stroke-width="2" stroke-linecap="round"/>
    </g>

    <g id="frame-right-3">
      <circle cx="19" cy="8" r="4" fill="#f2d3a0"/>
      <rect x="15" y="12" width="7" height="10" rx="1" fill="#7f8f9f"/>
      <line x1="15" y1="15" x2="12" y2="18" stroke="#7f8f9f" stroke-width="2" stroke-linecap="round"/>
      <line x1="22" y1="15" x2="27" y2="17" stroke="#7f8f9f" stroke-width="2" stroke-linecap="round"/>
      <line x1="17" y1="22" x2="14" y2="27" stroke="#404040" stroke-width="2" stroke-linecap="round"/>
      <line x1="20" y1="22" x2="24" y2="29" stroke="#404040" stroke-width="2" stroke-linecap="round"/>
    </g>

    <g id="frame-up-0">
      <circle cx="16" cy="8" r="4" fill="#e6c190"/>
      <rect x="12" y="12" width="8" height="10" rx="1" fill="#5b6977"/>
      <line x1="12" y1="15" x2="9" y2="19" stroke="#5b6977" stroke-width="2" stroke-linecap="round"/>
      <line x1="20" y1="15" x2="23" y2="19" stroke="#5b6977" stroke-width="2" stroke-linecap="round"/>
      <line x1="14" y1="22" x2="12" y2="29" stroke="#303030" stroke-width="2" stroke-linecap="round"/>
      <line x1="18" y1="22" x2="20" y2="29" stroke="#303030" stroke-width="2" stroke-linecap="round"/>
    </g>

    <g id="frame-up-1">
      <circle cx="16" cy="8" r="4" fill="#e6c190"/>
      <rect x="12" y="12" width="8" height="10" rx="1" fill="#5b6977"/>
      <line x1="12" y1="15" x2="8" y2="19" stroke="#5b6977" stroke-width="2" stroke-linecap="round"/>
      <line x1="20" y1="15" x2="24" y2="19" stroke="#5b6977" stroke-width="2" stroke-linecap="round"/>
      <line x1="14" y1="22" x2="10" y2="27" stroke="#303030" stroke-width="2" stroke-linecap="round"/>
      <line x1="18" y1="22" x2="22" y2="29" stroke="#303030" stroke-width="2" stroke-linecap="round"/>
    </g>

    <g id="frame-up-2">
      <circle cx="16" cy="8" r="4" fill="#e6c190"/>
      <rect x="12" y="12" width="8" height="10" rx="1" fill="#5b6977"/>
      <line x1="12" y1="15" x2="9" y2="19" stroke="#5b6977" stroke-width="2" stroke-linecap="round"/>
      <line x1="20" y1="15" x2="23" y2="19" stroke="#5b6977" stroke-width="2" stroke-linecap="round"/>
      <line x1="14" y1="22" x2="12" y2="29" stroke="#303030" stroke-width="2" stroke-linecap="round"/>
      <line x1="18" y1="22" x2="20" y2="29" stroke="#303030" stroke-width="2" stroke-linecap="round"/>
    </g>

    <g id="frame-up-3">
      <circle cx="16" cy="8" r="4" fill="#e6c190"/>
      <rect x="12" y="12" width="8" height="10" rx="1" fill="#5b6977"/>
      <line x1="12" y1="15" x2="8" y2="19" stroke="#5b6977" stroke-width="2" stroke-linecap="round"/>
      <line x1="20" y1="15" x2="24" y2="19" stroke="#5b6977" stroke-width="2" stroke-linecap="round"/>
      <line x1="14" y1="22" x2="10" y2="29" stroke="#303030" stroke-width="2" stroke-linecap="round"/>
      <line x1="18" y1="22" x2="22" y2="27" stroke="#303030" stroke-width="2" stroke-linecap="round"/>
    </g>
  </defs>

  <use href="#frame-down-0" x="0" y="0"/>
  <use href="#frame-down-1" x="32" y="0"/>
  <use href="#frame-down-2" x="64" y="0"/>
  <use href="#frame-down-3" x="96" y="0"/>

  <use href="#frame-left-0" x="0" y="32"/>
  <use href="#frame-left-1" x="32" y="32"/>
  <use href="#frame-left-2" x="64" y="32"/>
  <use href="#frame-left-3" x="96" y="32"/>

  <use href="#frame-right-0" x="0" y="64"/>
  <use href="#frame-right-1" x="32" y="64"/>
  <use href="#frame-right-2" x="64" y="64"/>
  <use href="#frame-right-3" x="96" y="64"/>

  <use href="#frame-up-0" x="0" y="96"/>
  <use href="#frame-up-1" x="32" y="96"/>
  <use href="#frame-up-2" x="64" y="96"/>
  <use href="#frame-up-3" x="96" y="96"/>
</svg>
